<mxfile host="app.diagrams.net" agent="Mozilla/5.0 (Windows NT 10.0; Win64; x64) AppleWebKit/537.36 (KHTML, like Gecko) Chrome/135.0.0.0 Safari/537.36 Edg/135.0.0.0" version="26.2.14">
  <diagram name="第 1 页" id="8VX5CCN3F0U3r4ihW9EU">
    <mxGraphModel dx="1098" dy="714" grid="1" gridSize="10" guides="1" tooltips="1" connect="1" arrows="1" fold="1" page="1" pageScale="1" pageWidth="827" pageHeight="1169" math="0" shadow="0">
      <root>
        <mxCell id="0" />
        <mxCell id="1" parent="0" />
        <mxCell id="XONkuJd5rc3Q6lyV7el2-15" style="edgeStyle=orthogonalEdgeStyle;rounded=0;orthogonalLoop=1;jettySize=auto;html=1;" edge="1" parent="1" source="XONkuJd5rc3Q6lyV7el2-2" target="XONkuJd5rc3Q6lyV7el2-9">
          <mxGeometry relative="1" as="geometry" />
        </mxCell>
        <mxCell id="XONkuJd5rc3Q6lyV7el2-16" value="是" style="edgeLabel;html=1;align=center;verticalAlign=middle;resizable=0;points=[];" vertex="1" connectable="0" parent="XONkuJd5rc3Q6lyV7el2-15">
          <mxGeometry x="0.18" y="-1" relative="1" as="geometry">
            <mxPoint as="offset" />
          </mxGeometry>
        </mxCell>
        <mxCell id="XONkuJd5rc3Q6lyV7el2-18" value="" style="edgeStyle=orthogonalEdgeStyle;rounded=0;orthogonalLoop=1;jettySize=auto;html=1;" edge="1" parent="1" source="XONkuJd5rc3Q6lyV7el2-2" target="XONkuJd5rc3Q6lyV7el2-17">
          <mxGeometry relative="1" as="geometry" />
        </mxCell>
        <mxCell id="XONkuJd5rc3Q6lyV7el2-19" value="否" style="edgeLabel;html=1;align=center;verticalAlign=middle;resizable=0;points=[];" vertex="1" connectable="0" parent="XONkuJd5rc3Q6lyV7el2-18">
          <mxGeometry x="-0.2333" y="6" relative="1" as="geometry">
            <mxPoint as="offset" />
          </mxGeometry>
        </mxCell>
        <mxCell id="XONkuJd5rc3Q6lyV7el2-2" value="是否失信" style="rhombus;whiteSpace=wrap;html=1;" vertex="1" parent="1">
          <mxGeometry x="350" y="110" width="80" height="80" as="geometry" />
        </mxCell>
        <mxCell id="XONkuJd5rc3Q6lyV7el2-9" value="弹出提示，未结算处方" style="whiteSpace=wrap;html=1;" vertex="1" parent="1">
          <mxGeometry x="330" y="290" width="120" height="60" as="geometry" />
        </mxCell>
        <mxCell id="XONkuJd5rc3Q6lyV7el2-14" style="edgeStyle=orthogonalEdgeStyle;rounded=0;orthogonalLoop=1;jettySize=auto;html=1;exitX=0.5;exitY=1;exitDx=0;exitDy=0;" edge="1" parent="1" source="XONkuJd5rc3Q6lyV7el2-9">
          <mxGeometry relative="1" as="geometry">
            <mxPoint x="390" y="440" as="targetPoint" />
            <Array as="points" />
          </mxGeometry>
        </mxCell>
        <mxCell id="XONkuJd5rc3Q6lyV7el2-20" style="edgeStyle=orthogonalEdgeStyle;rounded=0;orthogonalLoop=1;jettySize=auto;html=1;exitX=0.5;exitY=1;exitDx=0;exitDy=0;" edge="1" parent="1" source="XONkuJd5rc3Q6lyV7el2-17">
          <mxGeometry relative="1" as="geometry">
            <mxPoint x="580" y="440" as="targetPoint" />
          </mxGeometry>
        </mxCell>
        <mxCell id="XONkuJd5rc3Q6lyV7el2-17" value="本院未结算 处方提醒" style="rounded=1;whiteSpace=wrap;html=1;" vertex="1" parent="1">
          <mxGeometry x="520" y="290" width="120" height="60" as="geometry" />
        </mxCell>
        <mxCell id="XONkuJd5rc3Q6lyV7el2-21" value="" style="rounded=0;whiteSpace=wrap;html=1;" vertex="1" parent="1">
          <mxGeometry x="330" y="440" width="120" height="60" as="geometry" />
        </mxCell>
        <mxCell id="XONkuJd5rc3Q6lyV7el2-24" value="" style="edgeStyle=orthogonalEdgeStyle;rounded=0;orthogonalLoop=1;jettySize=auto;html=1;" edge="1" parent="1" source="XONkuJd5rc3Q6lyV7el2-22" target="XONkuJd5rc3Q6lyV7el2-23">
          <mxGeometry relative="1" as="geometry" />
        </mxCell>
        <mxCell id="XONkuJd5rc3Q6lyV7el2-22" value="是否实名" style="rounded=0;whiteSpace=wrap;html=1;" vertex="1" parent="1">
          <mxGeometry x="520" y="440" width="120" height="60" as="geometry" />
        </mxCell>
        <mxCell id="XONkuJd5rc3Q6lyV7el2-23" value="只允许诊查费欠费执行，其他项目不支持欠费执行" style="whiteSpace=wrap;html=1;rounded=0;" vertex="1" parent="1">
          <mxGeometry x="520" y="580" width="120" height="60" as="geometry" />
        </mxCell>
      </root>
    </mxGraphModel>
  </diagram>
</mxfile>
